<?xml version="1.0" standalone="no"?>
<!DOCTYPE svg PUBLIC "-//W3C//DTD SVG 20010904//EN"
 "http://www.w3.org/TR/2001/REC-SVG-20010904/DTD/svg10.dtd">
<svg version="1.0" xmlns="http://www.w3.org/2000/svg"
 width="512.000000pt" height="512.000000pt" viewBox="0 0 512.000000 512.000000"
 preserveAspectRatio="xMidYMid meet">
<metadata>
Created by potrace 1.16, written by Peter Selinger 2001-2019
</metadata>
<g transform="translate(0.000000,512.000000) scale(0.100000,-0.100000)"
fill="#000000" stroke="none">
<path d="M2145 4454 c-133 -24 -366 -97 -352 -110 2 -2 37 8 78 22 158 55 274
75 449 81 197 6 295 -8 473 -67 195 -65 420 -192 600 -337 38 -30 71 -53 73
-50 9 9 -113 109 -224 183 -217 146 -448 244 -656 279 -110 19 -333 18 -441
-1z"/>
<path d="M3680 4466 c0 -3 34 -28 75 -56 184 -124 429 -351 567 -526 251 -316
405 -701 440 -1096 9 -109 15 -138 26 -138 22 0 10 283 -17 411 -44 207 -162
490 -277 666 -86 133 -138 197 -259 322 -143 147 -290 264 -453 360 -28 16
-63 37 -77 47 -14 9 -25 14 -25 10z"/>
<path d="M1620 4416 c-195 -85 -363 -181 -550 -316 -93 -67 -180 -139 -150
-124 8 4 70 47 137 95 211 150 430 275 601 340 34 13 62 27 62 31 0 14 -23 8
-100 -26z"/>
<path d="M2389 4038 c-316 -19 -629 -174 -880 -435 -77 -79 -152 -174 -144
-182 4 -3 21 12 37 34 72 93 275 282 373 348 157 104 341 178 515 208 109 18
326 16 440 -6 175 -32 373 -109 515 -199 79 -50 79 -50 70 -37 -11 19 -150
108 -220 141 -97 46 -261 97 -365 114 -119 19 -206 23 -341 14z"/>
<path d="M4160 4008 c0 -3 30 -47 68 -96 184 -247 325 -553 382 -831 11 -55
25 -160 31 -233 14 -185 19 -189 14 -13 -9 335 -131 678 -357 1005 -57 83
-138 182 -138 168z"/>
<path d="M969 3953 c-357 -311 -543 -607 -630 -1003 -31 -139 -34 -390 -6
-520 54 -251 151 -425 397 -708 105 -121 158 -167 88 -75 -216 280 -362 663
-384 1005 -16 245 63 613 181 853 63 126 155 245 297 379 124 118 154 154 57
69z"/>
<path d="M3500 3916 c0 -14 515 -164 526 -153 6 5 -176 60 -325 97 -69 17
-140 38 -159 46 -37 15 -42 16 -42 10z"/>
<path d="M2460 3846 c-20 -13 -41 -34 -48 -48 -11 -20 -26 -26 -94 -37 -137
-21 -382 -111 -455 -167 -17 -13 -48 -52 -69 -86 -21 -35 -62 -92 -93 -128
-30 -36 -77 -97 -104 -136 l-50 -72 -44 20 c-24 10 -56 18 -71 16 -24 -3 -27
-8 -30 -44 -3 -37 1 -45 33 -72 l36 -29 -181 -61 c-310 -105 -365 -140 -408
-255 -22 -57 -42 -180 -42 -251 0 -33 -6 -48 -26 -67 -56 -52 -67 -112 -39
-207 28 -94 65 -123 235 -183 61 -21 104 -43 120 -60 14 -15 35 -30 48 -34 22
-6 22 -8 8 -24 -38 -42 -19 -52 287 -151 399 -128 568 -167 677 -154 85 9 175
31 225 55 44 21 51 21 134 9 124 -18 178 -4 242 60 26 26 56 65 68 87 18 37
33 47 162 109 78 38 144 67 147 66 3 -2 8 0 11 6 11 16 445 224 471 226 14 0
24 6 23 13 -2 8 4 10 14 6 10 -4 14 -2 10 4 -12 20 39 30 123 26 82 -5 86 -4
127 26 28 20 51 50 73 95 33 66 45 75 78 55 13 -8 28 -6 65 10 26 11 47 25 47
31 0 6 -22 20 -50 32 -27 11 -50 24 -50 27 0 4 17 15 37 26 21 11 63 45 94 75
44 44 61 68 73 110 25 85 22 127 -14 158 l-30 26 0 114 c0 120 -10 155 -51
180 -17 11 -89 28 -191 46 -36 6 -38 10 -102 139 -62 126 -185 308 -249 366
-50 46 -36 15 27 -61 85 -101 168 -229 211 -321 40 -86 42 -101 18 -93 -101
29 -219 60 -318 82 -66 15 -128 34 -138 42 -10 9 -30 38 -44 64 -15 27 -40 57
-57 67 -55 33 -247 98 -416 140 -91 23 -167 46 -169 52 -12 36 -51 60 -125 79
-102 26 -124 25 -166 -4z m154 -22 c80 -21 97 -30 73 -40 -22 -8 -208 36 -201
48 8 13 61 9 128 -8z m-64 -60 c36 -10 68 -22 72 -28 4 -6 8 -28 8 -49 0 -34
-2 -37 -22 -32 -142 33 -191 45 -195 49 -2 2 5 23 17 46 15 29 26 40 38 36 9
-2 46 -13 82 -22z m185 -46 c13 -32 13 -33 -16 -48 -27 -12 -31 -12 -39 0 -6
8 -10 30 -10 48 0 28 3 32 25 32 20 0 29 -8 40 -32z m-361 10 c-4 -7 -14 -21
-22 -31 -10 -11 -12 -21 -6 -27 5 -5 77 -24 159 -41 l150 -31 55 21 c82 32 86
35 72 65 -14 32 -16 32 111 0 300 -76 509 -167 439 -191 -112 -38 -269 -106
-412 -178 -198 -99 -212 -102 -327 -65 -69 23 -72 25 -56 42 15 16 15 21 -1
60 -29 74 -80 161 -106 180 -14 9 -73 30 -132 45 -59 14 -105 29 -103 33 2 4
22 13 45 20 61 20 59 32 -2 14 -104 -30 -175 -70 -204 -113 -25 -38 -30 -41
-74 -41 -66 0 -110 10 -110 25 0 21 60 66 128 96 86 39 254 96 333 113 35 8
65 14 67 15 2 1 0 -5 -4 -11z m-74 -173 c58 -14 114 -32 125 -39 22 -14 105
-166 105 -192 0 -9 -7 -14 -17 -12 -11 2 -34 34 -56 80 -44 88 -46 89 -240
142 -181 50 -110 67 83 21z m-8 -75 c88 -28 97 -33 107 -62 13 -38 14 -68 2
-68 -5 0 -37 9 -72 19 -35 11 -103 31 -151 45 -92 28 -98 34 -76 82 11 24 16
26 53 20 22 -3 83 -19 137 -36z m-301 -27 c-13 -25 3 -49 47 -72 64 -32 344
-113 407 -117 33 -2 91 -15 128 -29 125 -46 151 -41 387 78 113 56 238 114
278 127 l73 25 42 -24 c23 -13 51 -36 62 -50 54 -70 115 -126 166 -152 55 -27
119 -90 119 -116 0 -7 -27 -26 -60 -43 l-60 -30 -26 37 c-14 21 -50 81 -80
133 -85 145 -98 160 -144 160 -56 0 -194 -51 -355 -130 -191 -94 -193 -97
-211 -255 -8 -70 -19 -157 -25 -194 -6 -36 -9 -91 -7 -121 l3 -54 -170 -89
c-93 -49 -200 -111 -237 -137 l-66 -48 -26 39 c-15 21 -32 39 -39 40 -6 0 76
44 183 97 107 53 196 103 198 110 3 10 0 11 -14 3 -11 -6 -89 -38 -174 -71
-223 -87 -328 -154 -405 -259 -16 -22 -36 -41 -42 -41 -18 0 -17 5 19 73 40
73 100 121 258 201 106 55 139 77 84 56 -108 -41 -276 -133 -318 -175 -44 -43
-49 -45 -65 -31 -40 37 -721 246 -800 246 -21 0 -23 3 -17 31 12 64 100 138
256 219 55 28 100 53 100 55 0 9 -89 -28 -160 -67 -101 -54 -173 -110 -199
-151 -28 -45 -36 -136 -21 -225 14 -83 33 -104 98 -106 33 -1 37 2 40 27 3 25
-2 30 -62 57 -70 31 -83 53 -52 95 13 18 16 18 77 2 35 -8 91 -18 124 -21 63
-5 331 -91 445 -144 36 -16 83 -35 105 -42 22 -7 44 -16 48 -20 5 -4 3 -42 -4
-83 -18 -107 -13 -113 144 -163 93 -28 122 -41 110 -48 -26 -14 -128 9 -382
90 -257 82 -678 222 -699 234 -11 5 -14 43 -12 173 1 184 -6 211 -60 243 -20
12 -26 21 -20 29 29 35 461 196 469 174 10 -30 49 -49 187 -88 415 -117 693
-193 822 -225 l142 -36 39 19 c22 12 41 30 44 43 4 13 16 98 29 190 l22 167
-23 25 c-13 14 -62 41 -108 61 -111 46 -515 176 -679 218 -96 25 -130 38 -132
51 -5 25 53 45 136 46 66 0 72 -2 63 -17z m-207 -81 c2 -4 -21 -39 -51 -77
-79 -99 -194 -275 -191 -293 2 -8 19 -21 38 -28 19 -7 31 -13 27 -13 -10 -1
-120 30 -126 35 -5 5 133 207 206 302 59 75 84 95 97 74z m1895 -34 c63 -16
156 -42 207 -59 50 -16 131 -36 178 -45 69 -13 90 -21 106 -41 26 -33 27 -74
3 -70 -19 2 -360 -170 -403 -203 -14 -11 64 25 174 80 109 55 200 100 202 100
3 0 2 -33 -2 -73 -4 -47 -2 -81 4 -94 10 -18 6 -23 -35 -46 l-47 -25 -27 29
c-31 34 -81 39 -129 14 -43 -22 -37 -25 14 -7 41 15 45 15 72 -3 l29 -20 -45
-5 c-25 -3 -55 -12 -68 -18 -46 -26 -107 -135 -173 -310 -17 -46 -33 -81 -36
-78 -3 2 -15 1 -27 -4 -22 -8 -22 -8 -10 43 7 29 15 69 18 89 5 29 15 41 49
61 36 22 48 38 84 116 48 105 39 113 -12 12 -19 -38 -42 -71 -52 -74 -10 -2
-25 -8 -33 -11 -13 -5 -15 8 -16 91 0 98 -10 137 -49 188 -14 20 -10 23 162
94 97 40 190 78 205 83 16 6 27 12 25 15 -5 5 -181 -60 -317 -116 -82 -35 -97
-38 -109 -26 -8 8 -13 16 -10 18 2 2 64 29 137 61 73 32 135 63 139 69 19 30
-115 87 -277 118 -50 10 -70 19 -92 43 -15 17 -28 34 -28 39 0 10 47 2 189
-35z m-305 -11 c33 -43 146 -279 139 -291 -3 -4 -40 61 -82 145 -76 154 -76
154 -108 151 -37 -2 -223 -60 -237 -72 -5 -5 7 -45 27 -92 48 -110 85 -264 69
-280 -14 -14 -12 -19 -42 122 -12 57 -35 139 -50 181 l-29 78 72 27 c61 24
186 61 209 63 4 1 18 -14 32 -32z m311 -73 c105 -31 148 -51 140 -65 -4 -5
-28 -20 -55 -34 l-48 -25 -25 43 c-14 23 -44 53 -66 67 -23 14 -49 31 -59 38
-16 12 -15 13 3 8 11 -3 61 -17 110 -32z m-1640 -34 c-167 -82 -449 -209 -454
-205 -2 3 0 9 5 13 30 26 474 222 499 221 6 0 -17 -13 -50 -29z m1024 -27 c31
-87 59 -198 67 -263 6 -52 4 -59 -15 -69 -17 -9 -20 -9 -15 3 3 7 0 42 -6 77
-11 66 -60 281 -66 288 -5 6 -137 -69 -162 -92 -13 -12 -28 -30 -34 -40 -8
-17 -36 -196 -35 -237 0 -8 -8 -44 -17 -79 -10 -35 -16 -79 -14 -97 2 -18 -1
-35 -7 -36 -23 -7 -19 37 41 439 3 22 16 42 39 60 37 30 173 102 191 103 6 0
21 -26 33 -57z m-1283 17 c8 0 13 -4 10 -9 -3 -5 5 -12 19 -15 14 -4 25 -10
25 -14 0 -8 -210 -115 -215 -110 -2 2 26 43 62 91 53 70 68 85 75 73 5 -9 16
-16 24 -16z m-306 -45 c17 -9 30 -20 30 -26 0 -11 -55 15 -65 31 -9 14 1 13
35 -5z m2712 -165 c-2 -19 -11 -42 -18 -50 -12 -12 -14 -7 -14 39 0 29 5 62
12 74 l12 22 6 -25 c4 -14 5 -41 2 -60z m-597 12 c-3 -3 -79 -41 -168 -83
-144 -68 -164 -75 -177 -62 -9 9 -11 17 -5 19 6 2 82 37 170 78 117 55 163 71
173 64 7 -6 10 -13 7 -16z m43 -39 c8 -14 2 -21 -37 -38 -53 -25 -84 -55 -57
-55 9 0 38 11 65 25 27 13 51 21 55 18 3 -3 -17 -16 -44 -29 -51 -23 -65 -49
-34 -61 25 -9 84 26 85 51 0 21 1 21 9 1 5 -11 9 -59 9 -107 1 -81 -1 -89 -22
-103 -29 -19 -329 -156 -333 -152 -1 1 -4 49 -5 106 l-2 104 37 22 c53 32 58
41 9 16 -23 -11 -44 -21 -47 -21 -5 0 -47 83 -43 86 10 10 316 152 329 153 9
1 21 -7 26 -16z m-1961 -29 c-3 -3 -12 -4 -19 -1 -8 3 -5 6 6 6 11 1 17 -2 13
-5z m1623 -8 c0 -2 -7 -7 -16 -10 -8 -3 -12 -2 -9 4 6 10 25 14 25 6z m905
-42 c-24 -18 -111 -64 -122 -64 -4 0 21 18 57 40 65 39 103 53 65 24z m-967
-36 c8 -10 -10 -22 -74 -50 -82 -36 -84 -36 -84 -15 0 18 13 28 58 49 65 30
85 33 100 16z m-204 -18 c16 -13 22 -50 9 -50 -5 0 -17 7 -27 15 -13 10 -44
15 -88 15 -63 0 -68 -2 -74 -24 -3 -13 -1 -34 6 -45 7 -13 7 -21 1 -21 -31 0
-37 83 -9 118 15 18 159 12 182 -8z m1198 -84 c-14 -30 -39 -59 -79 -90 -80
-63 -92 -62 -82 11 4 32 12 59 16 61 4 1 42 24 83 51 85 54 97 48 62 -33z
m-939 13 c10 -29 21 -99 24 -154 l6 -101 -124 -58 c-68 -33 -147 -69 -174 -82
-28 -12 -57 -29 -64 -38 -13 -16 -7 -36 11 -36 11 0 151 62 272 121 33 16 61
27 64 25 10 -11 -31 -172 -46 -181 -16 -9 -302 -145 -305 -145 -1 0 -1 30 1
68 4 83 -22 161 -73 216 -19 21 -35 44 -35 50 0 14 -34 143 -44 167 -8 19 67
55 134 64 27 3 98 33 180 75 74 38 140 68 145 66 6 -1 18 -27 28 -57z m-2283
-38 c5 -11 10 -34 10 -51 l0 -31 -31 18 c-49 29 -64 50 -49 68 18 21 57 19 70
-4z m2936 -16 c8 -13 14 -32 11 -42 -4 -15 -5 -14 -6 3 0 12 -8 28 -17 35 -14
11 -20 9 -41 -15 -13 -16 -21 -31 -18 -34 3 -4 10 -1 14 6 5 9 11 5 21 -12 10
-20 17 -23 31 -16 10 6 20 10 23 10 13 0 5 -23 -13 -38 -22 -19 -43 -120 -22
-108 6 4 11 15 12 24 0 9 3 12 5 5 7 -17 -42 -109 -63 -117 -11 -5 -22 -1 -29
9 -17 23 -28 105 -16 117 6 6 8 16 5 24 -13 34 49 174 77 174 5 0 17 -11 26
-25z m-1106 -9 c0 -2 -7 -7 -16 -10 -8 -3 -12 -2 -9 4 6 10 25 14 25 6z m-35
-118 c9 -24 19 -67 22 -95 l6 -53 -37 0 c-39 0 -89 -18 -121 -44 -11 -9 2 -5
29 9 71 36 123 34 163 -7 18 -18 42 -55 54 -83 37 -83 30 -225 -12 -225 -4 0
-5 31 -2 70 4 53 2 80 -11 115 -19 49 -66 95 -99 95 -39 0 -106 -41 -156 -96
-61 -67 -102 -150 -132 -267 l-22 -89 -46 -20 c-25 -11 -107 -40 -181 -66
-186 -63 -222 -63 -440 5 -319 100 -885 285 -919 302 -34 16 -79 66 -69 76 3
3 22 -2 44 -11 84 -36 1110 -375 1150 -381 35 -4 51 -1 88 21 25 15 58 43 73
63 26 34 138 95 286 156 32 14 37 20 37 49 0 37 -24 78 -45 78 -7 0 -52 -18
-100 -40 -48 -22 -90 -40 -93 -40 -4 0 -6 46 -4 102 4 117 11 134 78 181 40
29 419 234 435 236 4 1 14 -18 24 -41z m850 -74 l-16 -74 -107 -51 c-190 -91
-232 -109 -231 -96 1 29 27 158 32 164 4 3 80 41 169 83 117 54 164 72 166 62
2 -7 -4 -47 -13 -88z m302 49 c-3 -10 -5 -4 -5 12 0 17 2 24 5 18 2 -7 2 -21
0 -30z m-2952 -23 c11 0 15 -10 15 -36 0 -34 -1 -36 -27 -29 -16 3 -47 15 -70
25 -37 16 -43 23 -43 49 l0 29 55 -19 c30 -10 61 -19 70 -19z m10 -120 c3 0 5
-7 5 -16 0 -13 -7 -15 -32 -10 -49 10 -103 39 -106 58 -3 16 4 15 63 -7 36
-14 68 -25 70 -25z m2685 5 c0 -9 -70 -50 -187 -109 -192 -95 -610 -296 -618
-296 -3 0 -5 6 -5 14 0 8 120 70 293 152 226 107 487 235 515 252 1 1 2 -5 2
-13z m-2788 -50 c29 -14 70 -25 90 -25 21 0 97 -20 170 -45 72 -25 294 -98
492 -162 276 -89 377 -117 431 -120 69 -5 72 -4 218 63 118 54 150 65 157 54
5 -8 7 -17 4 -21 -5 -9 -113 -60 -224 -106 -130 -54 -161 -50 -555 80 -336
110 -599 194 -700 222 -73 21 -155 55 -155 65 0 6 11 20 16 20 1 0 26 -11 56
-25z m1268 -12 c30 -39 10 -54 -80 -61 -71 -5 -72 -4 -61 16 16 30 73 72 98
72 12 0 31 -12 43 -27z m-865 -182 c579 -188 722 -231 760 -231 40 0 49 -10
31 -36 -23 -30 -85 -20 -322 52 -268 80 -854 275 -929 309 -57 25 -58 26 -49
62 l6 21 51 -23 c29 -13 232 -82 452 -154z m805 18 c24 -5 61 -7 82 -4 38 7
38 7 38 -28 0 -50 -9 -67 -34 -67 -26 0 -226 66 -238 78 -5 5 -4 21 3 35 11
25 12 25 58 11 25 -8 66 -19 91 -25z m640 -44 c19 -31 22 -47 18 -123 -3 -98
-31 -168 -80 -205 -25 -19 -28 -19 -52 -4 -35 23 -49 77 -44 166 5 79 19 117
64 170 35 42 66 41 94 -4z"/>
<path d="M2466 3745 c-3 -8 0 -15 7 -15 8 0 8 -3 -2 -9 -9 -6 -10 -11 -3 -15
11 -6 32 23 32 43 0 17 -27 13 -34 -4z"/>
<path d="M2524 3736 c-8 -8 -8 -18 -2 -29 13 -23 27 -21 37 6 11 29 4 35 -15
11 -15 -18 -15 -18 -9 4 7 25 5 27 -11 8z"/>
<path d="M2575 3707 c-4 -10 -5 -21 -1 -24 10 -10 18 4 13 24 -4 17 -4 17 -12
0z"/>
<path d="M3490 3227 c0 -11 92 -148 97 -143 8 8 -27 70 -62 111 -19 22 -34 37
-35 32z"/>
<path d="M1948 2793 c7 -3 16 -2 19 1 4 3 -2 6 -13 5 -11 0 -14 -3 -6 -6z"/>
<path d="M2048 2763 c7 -3 16 -2 19 1 4 3 -2 6 -13 5 -11 0 -14 -3 -6 -6z"/>
<path d="M2268 2703 c7 -3 16 -2 19 1 4 3 -2 6 -13 5 -11 0 -14 -3 -6 -6z"/>
<path d="M2480 2646 c0 -2 7 -7 16 -10 8 -3 12 -2 9 4 -6 10 -25 14 -25 6z"/>
<path d="M1492 2578 c6 -18 52 -32 74 -24 18 7 18 8 0 22 -25 18 -79 19 -74 2z"/>
<path d="M1271 2531 c-21 -21 -38 -132 -26 -171 9 -27 23 -33 264 -111 181
-59 194 -62 218 -47 19 11 33 13 62 5 47 -13 69 -5 77 28 8 33 5 35 -58 50
-52 11 -53 12 -59 53 -3 23 -14 50 -24 62 -11 12 -86 42 -199 79 -237 76 -232
75 -255 52z m209 -73 c69 -22 149 -49 178 -60 l52 -19 0 -76 0 -75 -29 7 c-43
9 -360 114 -382 126 -15 7 -19 21 -19 57 0 26 3 57 6 70 8 28 14 27 194 -30z"/>
<path d="M1410 2395 c0 -25 5 -45 10 -45 6 0 10 13 10 29 0 16 3 36 6 45 4 11
1 16 -10 16 -12 0 -16 -10 -16 -45z"/>
<path d="M1474 2384 c-1 -51 7 -56 27 -16 7 15 15 30 16 33 2 3 -7 10 -19 16
-22 10 -23 8 -24 -33z"/>
<path d="M1520 2371 c-11 -27 -14 -44 -7 -39 1 1 13 -4 26 -11 23 -13 24 -13
17 25 -10 53 -21 61 -36 25z"/>
<path d="M1592 2365 c-17 -37 -15 -62 6 -67 14 -4 17 3 18 44 1 53 -7 61 -24
23z"/>
<path d="M3205 2741 c-22 -10 -46 -25 -54 -34 -12 -16 -10 -16 27 -3 23 8 51
20 62 26 12 6 24 9 27 6 3 -2 -18 -16 -46 -30 -28 -15 -51 -28 -51 -30 0 -3 7
-11 15 -19 18 -18 50 -11 89 20 23 19 27 27 21 53 -8 36 -30 39 -90 11z"/>
<path d="M2877 2569 c-22 -11 -36 -23 -33 -26 10 -10 86 19 86 34 0 17 -7 16
-53 -8z"/>
<path d="M2893 2533 c-32 -16 -45 -43 -20 -43 18 0 77 38 77 50 0 14 -19 12
-57 -7z"/>
<path d="M3870 2618 c0 -25 3 -29 10 -18 13 20 13 50 0 50 -5 0 -10 -15 -10
-32z"/>
<path d="M3850 2570 c0 -5 5 -10 10 -10 6 0 10 5 10 10 0 6 -4 10 -10 10 -5 0
-10 -4 -10 -10z"/>
<path d="M3854 2506 c-13 -54 22 -90 46 -46 13 24 3 50 -11 29 -6 -10 -9 -8
-9 8 0 32 -18 38 -26 9z"/>
<path d="M2605 2436 c-139 -60 -237 -107 -232 -112 9 -9 337 139 337 151 0 7
4 9 -105 -39z"/>
<path d="M2595 2318 c-20 -24 -41 -52 -47 -63 -14 -25 -11 -22 46 48 54 66 55
77 1 15z"/>
<path d="M2673 2148 c-11 -13 -26 -34 -33 -47 -10 -20 -9 -26 9 -44 21 -21 21
-21 22 -2 1 11 0 29 -1 40 -2 17 0 17 15 5 15 -12 19 -12 31 5 18 24 14 59 -6
63 -9 1 -25 -8 -37 -20z"/>
<path d="M2725 2081 c-3 -5 -1 -12 4 -15 5 -4 11 0 14 6 2 7 2 -17 -1 -54 -3
-43 -1 -68 5 -68 26 0 32 124 7 134 -20 8 -22 8 -29 -3z"/>
<path d="M2614 2024 c-7 -39 -2 -49 21 -41 19 8 20 63 0 70 -10 5 -16 -4 -21
-29z"/>
<path d="M2649 1933 c-2 -24 -2 -25 -6 -5 -7 34 -33 28 -33 -9 0 -24 4 -30 15
-25 9 3 15 0 15 -7 0 -7 6 -22 14 -32 13 -18 15 -17 45 15 31 34 40 60 21 60
-5 0 -16 -12 -24 -27 l-15 -28 -1 27 c0 55 -29 83 -31 31z"/>
<path d="M4159 3682 c5 -9 26 -42 46 -72 88 -131 182 -349 221 -512 9 -43 21
-78 26 -78 11 0 10 4 -7 80 -26 112 -73 241 -125 345 -52 104 -149 255 -163
255 -4 0 -3 -8 2 -18z"/>
<path d="M4404 2708 c43 -525 -215 -1084 -670 -1454 -52 -42 -91 -80 -88 -85
17 -28 348 288 447 428 192 270 296 542 328 854 14 142 2 369 -20 369 -3 0 -2
-51 3 -112z"/>
<path d="M4631 2488 c-42 -309 -161 -644 -306 -869 -51 -79 -55 -106 -5 -37
125 171 242 453 296 713 23 112 43 285 32 285 -2 0 -10 -42 -17 -92z"/>
<path d="M4765 2514 c-49 -287 -131 -536 -261 -796 -77 -154 -113 -209 -242
-373 -53 -66 -85 -111 -72 -100 45 39 224 260 275 339 172 266 280 562 305
835 11 120 8 172 -5 95z"/>
<path d="M3822 1977 c-228 -374 -612 -630 -1052 -703 -125 -21 -329 -21 -455
0 -130 22 -315 84 -432 146 -108 57 -115 49 -11 -11 269 -157 632 -211 966
-143 188 38 407 132 577 248 164 112 344 309 445 489 49 88 20 68 -38 -26z"/>
<path d="M930 1668 c0 -20 107 -181 177 -268 91 -112 247 -258 346 -324 48
-32 90 -56 93 -54 2 3 -43 40 -101 83 -177 129 -351 319 -457 497 -42 71 -58
89 -58 66z"/>
<path d="M1360 1584 c0 -17 126 -172 199 -244 184 -181 410 -301 681 -362 91
-20 132 -23 310 -23 230 0 319 14 513 81 151 52 413 196 458 250 20 24 1 29
-24 7 -74 -69 -307 -193 -455 -242 -183 -61 -277 -75 -492 -75 -165 0 -210 3
-293 22 -357 80 -630 252 -832 524 -44 60 -65 80 -65 62z"/>
<path d="M952 1414 c58 -82 214 -257 285 -320 273 -243 634 -426 979 -494 70
-14 164 -24 265 -27 551 -19 1068 194 1496 615 93 91 237 262 229 270 -4 3
-23 -14 -43 -39 -51 -60 -145 -159 -218 -229 -294 -282 -675 -473 -1105 -552
-169 -31 -457 -31 -630 0 -282 51 -583 186 -830 370 -105 78 -273 244 -361
357 -75 96 -129 135 -67 49z"/>
</g>
</svg>